<svg width="24" height="24" viewBox="0 0 24 24" fill="none" xmlns="http://www.w3.org/2000/svg">
<path d="M8.14286 3H4.63636C3.73262 3 3 3.73262 3 4.63636C3 13.6738 10.3262 21 19.3636 21C20.2673 21 21 20.2673 21 19.3636V15.8571L17.1429 13.2857L15.1428 15.2857C14.7955 15.6331 14.2763 15.7411 13.8398 15.5157C13.0996 15.1332 11.8983 14.4147 10.7143 13.2857C9.50195 12.1297 8.79163 10.8841 8.43512 10.1305C8.23532 9.70804 8.35099 9.22044 8.68141 8.89002L10.7143 6.85714L8.14286 3Z" stroke="#3183FF" stroke-width="1.5" stroke-linecap="round" stroke-linejoin="round"/>
<path d="M14.4827 3.34695C17.5007 4.21128 19.8698 6.61188 20.6896 9.64849" stroke="#3183FF" stroke-width="1.5" stroke-linecap="round" stroke-linejoin="round"/>
</svg>
