<svg width="24" height="24" viewBox="0 0 24 24" fill="none" xmlns="http://www.w3.org/2000/svg">
<g opacity="0.8">
<path d="M19.0667 7.20001H4.13333C2.95513 7.20001 2 8.15514 2 9.33335V17.8667C2 19.0449 2.95513 20 4.13333 20H19.0667C20.2449 20 21.2 19.0449 21.2 17.8667V9.33335C21.2 8.15514 20.2449 7.20001 19.0667 7.20001Z" stroke="#3183FF" stroke-width="1.6" stroke-linecap="round" stroke-linejoin="round"/>
<path d="M8.3999 6.13333C8.3999 4.95513 9.35503 4 10.5332 4H12.6666C13.8448 4 14.7999 4.95513 14.7999 6.13333V7.2H8.3999V6.13333Z" stroke="#3183FF" stroke-width="1.6" stroke-linecap="round" stroke-linejoin="round"/>
<path d="M9.46655 12.5333L9.69173 12.646C10.893 13.2465 12.3068 13.2465 13.508 12.646L13.7332 12.5333" stroke="#3183FF" stroke-width="1.6" stroke-linecap="round" stroke-linejoin="round"/>
</g>
</svg>
