<svg width="20" height="20" viewBox="0 0 20 20" fill="none" xmlns="http://www.w3.org/2000/svg">
<g clip-path="url(#clip0_432_805)">
<path d="M4.43242 12.0863L3.73625 14.6852L1.19176 14.739C0.431328 13.3286 0 11.7149 0 10C0 8.34179 0.403281 6.77804 1.11813 5.40112H1.11867L3.38398 5.81644L4.37633 8.06815C4.16863 8.67366 4.05543 9.32366 4.05543 10C4.05551 10.7341 4.18848 11.4374 4.43242 12.0863Z" fill="#FBBB00"/>
<path d="M19.8252 8.1319C19.9401 8.73682 19.9999 9.36155 19.9999 10C19.9999 10.716 19.9247 11.4143 19.7813 12.088C19.2945 14.3803 18.0225 16.3819 16.2604 17.7984L16.2599 17.7978L13.4066 17.6522L13.0028 15.1314C14.172 14.4456 15.0857 13.3726 15.5671 12.088H10.2198V8.1319H19.8252Z" fill="#2F5D7C"/>
<path d="M16.2598 17.7978L16.2604 17.7984C14.5467 19.1759 12.3697 20 9.99995 20C6.19171 20 2.88073 17.8715 1.19171 14.7391L4.43238 12.0863C5.27687 14.3401 7.45105 15.9446 9.99995 15.9446C11.0955 15.9446 12.1219 15.6484 13.0027 15.1314L16.2598 17.7978Z" fill="#28B446"/>
<path d="M16.3829 2.30222L13.1434 4.95441C12.2319 4.38464 11.1544 4.0555 9.99998 4.0555C7.39338 4.0555 5.17853 5.73351 4.37635 8.06816L1.11865 5.40112H1.1181C2.7824 2.19234 6.13513 3.05176e-05 9.99998 3.05176e-05C12.4263 3.05176e-05 14.6511 0.864327 16.3829 2.30222Z" fill="#F14336"/>
</g>
<defs>
<clipPath id="clip0_432_805">
<rect width="20" height="20" fill="white"/>
</clipPath>
</defs>
</svg>
