<svg width="271" height="150" viewBox="0 0 271 150" fill="none" xmlns="http://www.w3.org/2000/svg">
<path d="M74.0001 36.6353C74.5423 38.1582 77.23 38.7636 76.7541 40.3085C76.6124 40.7681 76.1981 41.0847 75.949 41.4961C75.3465 42.4912 76.0188 43.9955 77.162 44.2104C76.4883 45.9314 73.5344 44.7234 72.6126 43.4743C71.8784 42.4794 70.469 42.1105 69.4087 42.7466C68.0284 43.5746 68.7761 45.2461 68.4048 46.5587C68.0415 47.8429 66.7004 48.5481 65.4889 49.1079C63.4928 50.03 61.4967 50.9522 59.5006 51.8744C58.6355 52.274 57.7445 52.6926 57.1122 53.4055C55.9261 54.7427 55.867 56.8662 54.5337 58.0566C53.3743 59.0917 51.5011 59.171 50.5616 60.4091C49.8039 61.4077 49.9318 62.7887 49.7433 64.0279C49.5547 65.2671 48.6191 66.6695 47.3917 66.415C46.7648 66.2849 46.3144 65.758 45.8475 65.3199C42.8504 62.508 37.3381 63.1978 35.1263 66.6615C33.6594 68.9587 33.8032 72.3293 35.8402 74.1402C37.8772 75.9512 41.6788 75.3882 42.7142 72.8669C43.5795 75.3169 44.4447 77.767 45.3099 80.217C45.8462 81.7357 46.5042 83.3972 47.9457 84.1156C50.014 85.1464 52.3759 83.7145 54.5193 82.8509C57.2066 81.768 60.2946 81.5941 63.0114 82.6006C66.6916 83.9639 69.7945 87.411 73.7068 87.1005C74.1636 91.533 78.0714 95.3581 82.5128 95.7198C83.6768 95.8146 84.88 95.7019 85.9849 96.08C88.6031 96.9759 89.61 100.267 89.2302 103.008C88.8503 105.749 87.5021 108.268 86.9611 110.982C86.6841 112.372 86.6115 113.834 85.9757 115.1C84.4598 118.119 80.2993 119.044 78.7537 122.048C77.969 123.573 77.9995 125.39 77.4001 126.997C76.3803 129.732 73.7372 131.457 71.8602 133.691C68.1732 138.08 68.7387 142.911 71.8509 147.416C72.3935 148.201 71.8568 149.256 70.9029 149.292C67.9225 149.406 63.63 147.672 61.7839 140.899C60.3016 135.46 59.6907 129.794 59.4922 124.16C59.3741 120.809 59.4832 117.194 57.5654 114.443C56.6833 113.178 55.4431 112.217 54.2979 111.184C50.8044 108.033 47.9494 103.612 48.4 98.9294C48.5896 96.9584 49.3525 95.0792 49.5716 93.1112C49.7906 91.1432 49.2952 88.8788 47.6097 87.8395C46.5244 87.1702 45.1334 87.1267 44.0729 86.4187C42.3063 85.2392 42.0707 82.7072 40.6658 81.114C38.237 78.3598 33.5941 79.4621 30.4128 77.6278C26.9135 75.6102 26.3208 70.9062 24.3039 67.4065C22.0216 63.4463 17.5784 60.5584 16.9424 56.0321C16.4684 52.6591 18.2964 49.4568 19.4706 46.2596C21.081 41.875 21.0207 35.6604 13.894 35.5074C12.8228 35.4844 11.7729 35.7499 10.7588 36.0956C7.95863 37.0498 4.98132 37.4741 2.02655 37.3509C1.56359 37.3316 1.08071 37.2928 0.684795 37.052C-0.640802 36.246 0.14307 34.0699 1.46619 33.2598C2.78931 32.4496 4.47916 32.2337 5.57859 31.1392C6.47614 30.2456 6.79782 28.944 7.37439 27.8162C9.51688 23.6256 14.9374 22.2785 19.631 22.6283C24.3246 22.9781 28.9302 24.5439 33.6283 24.2623C38.0134 23.9995 42.212 22.135 46.6049 22.1055C51.1454 22.0751 55.66 24.0107 60.1248 23.1843C63.4068 22.5768 66.5025 20.498 69.8045 20.9851C71.2758 21.2021 72.6634 21.9484 73.6556 23.0563C74.8562 24.397 75.4431 26.4059 74.7226 28.052C74.2487 29.135 73.2065 29.8061 72.0353 29.9667C70.1803 30.2212 69.6759 28.9708 68.7781 28.1451C66.681 26.2161 63.3493 27.1279 60.6893 28.1494C58.3356 29.0533 55.9819 29.9572 53.6281 30.861C52.6264 31.2458 51.5765 31.6646 50.9037 32.5005C50.2309 33.3365 50.1209 34.7271 50.9626 35.3928C52.1917 36.3648 54.6606 35.4022 55.1796 36.8807C55.3878 37.4739 55.0749 38.1099 55.0053 38.7347C54.6582 41.8503 59.0576 41.9251 60.7719 40.5914C63.0814 38.7949 64.0521 35.2988 65.7077 32.968C66.0702 32.4579 66.7617 31.0994 67.5426 31.1492C68.7366 31.2255 68.3635 32.8348 69.086 33.3706C70.334 34.2963 71.3356 32.9101 72.5866 33.2668C74.5016 33.8128 73.4668 35.1376 74.0001 36.6353ZM59.225 16.2708C58.4037 17.1858 57.8771 18.3614 57.7412 19.5835C58.5418 20.2731 59.8879 20.1938 60.6021 19.4151C61.3162 18.6365 61.2789 17.2885 60.5227 16.5505L59.225 16.2708ZM46.6367 18.1591C48.0604 18.6158 49.4841 19.0724 50.9078 19.5291C51.632 19.7614 52.4002 19.9961 53.1408 19.8232C53.9628 19.6313 54.56 18.9291 54.6497 18.1223C52.8483 17.6693 48.4209 17.2537 46.6367 18.1591Z" fill="#F0F3FB"/>
<path d="M48.1619 21.3518C47.7988 21.1387 47.5114 20.8171 47.1622 20.5819C46.3002 20.0015 45.1443 20.0167 44.1659 20.3668C43.1875 20.717 42.3463 21.3605 41.5227 21.9941C44.4004 23.9673 48.1863 24.5522 51.5253 23.5393C52.012 23.3917 52.5046 23.2027 52.8681 22.847C53.2317 22.4912 53.4369 21.9309 53.247 21.4591C53.0377 20.939 52.4097 20.6844 51.8528 20.7492C50.3616 20.9225 49.8496 22.3416 48.1619 21.3518ZM64.1995 16.4251C63.7403 17.2257 63.4561 18.1261 63.3726 19.0452C63.3535 19.2551 63.348 19.48 63.4558 19.6612C63.6244 19.9448 63.9988 20.0161 64.3281 20.0352C65.0333 20.0761 65.7724 19.9988 66.374 19.6286C66.9755 19.2584 67.4014 18.5411 67.2646 17.8481C67.0493 16.7564 65.6491 16.3317 64.5603 16.5607C64.357 16.6035 64.2094 16.9683 64.4112 16.919L64.1995 16.4251ZM56.0529 20.3241C55.5259 20.5047 55.1576 21.0679 55.2034 21.6232C55.2184 21.8046 55.2784 21.9911 55.4131 22.1136C55.5074 22.1993 55.6296 22.2465 55.7497 22.289C56.455 22.5385 57.1956 22.6878 57.9423 22.7311C57.9333 22.2238 57.9244 21.7165 57.9153 21.2093C57.9118 21.0107 57.8961 20.7857 57.7425 20.6598C57.6656 20.5968 57.5659 20.5702 57.4697 20.5454C56.9195 20.4034 56.3692 20.2614 55.8189 20.1194L56.0529 20.3241ZM50.0309 71.6771C50.2177 71.6977 50.4067 71.7189 50.5824 71.7853C51.2227 72.0271 51.499 72.768 51.9897 73.2451C52.3638 73.6089 52.8822 73.8199 53.4039 73.8209C53.7131 73.8215 54.0515 73.7312 54.2242 73.4747C54.3545 73.2812 54.3648 73.0331 54.3601 72.7999C54.3546 72.5258 54.3157 72.2156 54.0951 72.0531C53.9765 71.9658 53.8259 71.9384 53.6834 71.9011C52.5384 71.6017 51.7251 70.5732 50.6309 70.122C49.7419 69.7555 48.7446 69.799 47.7842 69.8485C47.1136 69.8831 45.9495 70.5439 46.7687 71.2589C47.3145 71.7355 49.306 71.597 50.0309 71.6771ZM58.277 75.0025C58.7235 75.002 59.1514 75.1665 59.5887 75.2566C60.2065 75.3839 60.844 75.3623 61.4744 75.3402C62.1117 75.3178 62.8398 75.2499 63.2174 74.7361C63.2594 74.679 63.2971 74.6111 63.2872 74.5409C63.2778 74.4743 63.2276 74.421 63.1751 74.379C62.7844 74.066 62.2255 74.1453 61.7249 74.1466C59.9738 74.1509 58.239 73.0078 56.5663 73.526C55.9231 73.7252 54.2427 74.5038 55.136 75.159C55.9678 75.7691 57.3968 75.0036 58.277 75.0025ZM101.632 27.2229C101.634 27.4457 101.639 27.679 101.746 27.8744C101.825 28.0187 101.954 28.1293 102.09 28.2229C103.113 28.9307 104.48 28.7784 105.711 28.597C105.967 28.5593 106.223 28.5215 106.479 28.4838C107.176 28.3811 107.885 28.2751 108.525 27.9805C109.165 27.6857 109.74 27.1707 109.937 26.4941C110.215 25.5412 109.575 24.4219 108.613 24.1779C106.913 23.7467 105.673 25.5462 103.997 25.3883C102.574 25.2543 101.615 25.5215 101.632 27.2229ZM84.6614 31.9031C84.8687 32.2136 85.1106 32.52 85.4468 32.6823C86.1026 32.9989 86.9145 32.6567 87.4018 32.1155C87.8891 31.5743 88.1468 30.8717 88.4793 30.2238C90.383 26.5142 94.6309 24.7266 98.6137 23.4928C100.83 22.8062 103.278 22.0471 104.482 20.0639C104.974 19.2544 105.219 18.2859 105.868 17.596C106.42 17.0084 107.201 16.6942 107.829 16.1885C108.458 15.6828 108.943 14.8061 108.583 14.0839C108.382 13.6792 107.964 13.4298 107.547 13.2553C103.441 11.5378 98.8817 15.1491 94.4713 14.5508C92.6698 14.3064 91.0402 13.3721 89.2875 12.8891C86.8919 12.229 84.3543 12.4313 81.8781 12.6388C79.7777 12.8148 77.6772 12.9908 75.5768 13.1668C72.6704 13.4103 69.5723 13.7277 67.3042 15.5614C68.8065 17.573 71.9328 16.9309 74.2735 16.0227C76.6143 15.1145 79.6245 14.272 81.3404 16.1048C85.673 20.7326 81.5184 27.1688 84.6614 31.9031Z" fill="#F0F3FB"/>
<path d="M80.5482 15.4869C80.7726 15.6117 80.9852 15.7631 81.1823 15.9473C81.1776 14.8643 81.1725 13.7813 81.1674 12.6982C80.9652 12.7152 80.7631 12.7321 80.561 12.7491C80.5566 13.6617 80.5523 14.5743 80.5482 15.4869Z" fill="#F0F3FB"/>
<path d="M249.979 90.3277C249.504 90.8695 249.163 91.5277 248.995 92.2279C248.935 92.4777 248.919 92.7917 249.13 92.9384C249.215 92.9977 249.322 93.0155 249.425 93.03C249.818 93.0853 250.261 93.1 250.566 92.845C250.812 92.6388 250.906 92.3043 250.955 91.9868C251.013 91.6156 251.022 91.2166 250.846 90.885C250.669 90.5533 250.256 90.3247 249.907 90.4647L249.979 90.3277ZM164.495 68.0048C165.564 71.0136 167.087 74.4485 170.196 75.1737C172.228 75.6476 174.365 74.7668 176.427 75.0837C177.375 79.3217 174.381 83.3702 171.346 86.4762C168.311 89.5821 164.827 92.875 164.458 97.2018C164.285 99.2265 164.829 101.339 164.164 103.26C163.366 105.565 160.979 107.104 160.393 109.471C160.129 110.54 160.265 111.674 160.019 112.747C159.772 113.822 159.158 114.77 158.555 115.693C156.032 119.556 153.16 123.69 148.747 125.036C146.76 125.642 144.214 125.405 143.142 123.626C142.45 122.475 142.577 121.037 142.447 119.701C142.314 118.338 141.894 117.022 141.477 115.718C140.608 113.001 139.738 110.285 138.869 107.568C138.536 106.53 138.202 105.482 138.092 104.397C137.924 102.733 138.291 101.064 138.731 99.4507C139.745 95.7425 141.127 91.6244 139.308 88.2378C138.819 87.3282 138.115 86.5236 137.805 85.5387C137.104 83.3092 138.4 80.3049 136.557 78.8677C134.502 80.1819 132.416 76.3512 129.992 76.6183C129.13 76.7132 128.43 77.322 127.697 77.786C124.654 79.7136 120.443 79.1643 117.578 76.9822C114.712 74.8002 113.099 71.261 112.638 67.6887C112.178 64.1164 112.76 60.4887 113.615 56.9896C113.807 56.2043 114.024 55.3988 114.516 54.7576C115.478 53.5047 117.216 53.188 118.517 52.2925C121 50.5837 121.85 46.8147 124.726 45.9148C125.436 45.6927 126.192 45.6825 126.924 45.5497C127.963 45.361 128.938 44.9279 129.931 44.5676C132.468 43.6471 135.174 43.192 137.872 43.2319C138.444 43.2403 139.042 43.2782 139.535 43.5683C140.606 44.1977 140.729 45.6596 140.835 46.8968C140.989 48.6921 141.408 50.5619 142.619 51.8961C143.83 53.2302 146.027 53.7999 147.479 52.7331C148.079 52.2927 148.499 51.6273 149.144 51.2552C149.887 50.8257 150.803 50.8557 151.656 50.9563C154.845 51.3328 158.817 52.255 160.172 55.3839C161.905 59.3847 163.029 63.8763 164.495 68.0048Z" fill="#F0F3FB"/>
<path d="M123.024 36.4421C122.535 38.0787 121.237 42.396 123.801 43.567C126.029 44.584 128.623 43.2262 130.435 41.5798C132.248 39.9333 133.873 37.8843 136.21 37.1538C140.115 35.9331 144.598 39.9334 143.829 43.9521C143.732 44.4578 143.587 45.0408 143.91 45.4415C144.349 45.9856 145.25 45.7027 145.763 45.2275C147.518 43.6015 147.305 40.8164 146.955 38.4494C148.533 38.3075 149.02 40.506 149.053 42.0895C149.085 43.6731 150.158 45.8264 151.588 45.1442C152.886 44.5247 152.574 42.1006 153.967 41.743C153.61 44.0316 155.503 46.4161 157.813 46.5873C159.142 46.6858 160.837 46.3109 161.521 47.4542C161.89 48.0713 161.735 48.8511 161.622 49.5613C160.605 56.0046 164.144 62.196 167.548 67.7607C168.724 69.6837 170.164 71.7931 172.387 72.1694C173.637 72.3811 174.908 71.984 176.08 71.4972C178.566 70.4637 180.872 68.9985 182.865 67.1866C184.203 65.9687 185.49 64.1583 184.799 62.4853C184.249 61.1519 182.677 60.5771 181.248 60.3799C179.819 60.1826 178.293 60.1914 177.06 59.4432C175.826 58.695 175.161 56.7812 176.229 55.8105C179.48 58.0639 183.338 59.4324 187.283 59.731C188.497 59.8229 189.734 59.8182 190.903 60.1578C194.947 61.3326 196.732 65.9988 197.585 70.1231C198.438 74.2474 199.21 78.9015 202.628 81.3611C204.791 79.0922 205.826 75.7962 205.347 72.6984C207.358 70.8426 209.37 68.9868 211.381 67.1311C212.224 66.3536 213.377 65.5207 214.41 66.0175C214.997 66.2997 215.317 66.9284 215.628 67.5008C216.963 69.9616 218.859 72.1157 221.131 73.7518C221.685 74.1504 222.283 74.5432 222.603 75.1457C222.957 75.812 222.907 76.6104 222.87 77.3641C222.662 81.6257 223.767 86.7406 227.746 88.2805C229.161 86.8159 228.187 84.3809 227.017 82.714C225.847 81.047 224.467 79.0078 225.312 77.1547C227.057 77.6663 228.707 78.5007 230.153 79.6032C232.084 78.501 231.651 75.5866 230.655 73.5989C229.66 71.6113 228.331 69.3378 229.286 67.3304C231.757 68.7243 235.056 68.4768 237.291 66.7297C239.527 64.9826 240.564 61.8405 239.808 59.1062C238.933 55.9415 235.975 53.5752 236.486 49.8976C236.711 48.2787 238.119 46.976 239.738 47.1995C243.313 47.6932 242.216 53.9919 245.435 54.3717C246.795 52.4651 244.339 49.6792 245.335 47.5594C245.599 46.9973 246.076 46.5704 246.489 46.1058C249.859 42.3072 247.95 35.2673 243.123 33.6908C241.823 33.2663 240.179 33.0044 239.923 31.4981C239.708 30.2354 240.641 29.0375 241.889 28.7489C246.127 27.7686 250.467 27.2292 254.816 27.141C254.919 30.9703 256.977 34.6958 260.162 36.8232C261.613 33.71 260.803 29.6952 258.259 27.3881C260.114 27.4485 262.545 27.0729 262.862 25.244C262.934 24.8301 262.876 24.3813 263.072 24.0097C263.833 22.5663 267.196 23.8098 267.128 22.1794C257.186 16.3404 244.437 18.9398 233.441 15.4721C231.723 14.9305 230.039 14.2377 228.257 13.9811C226.651 13.7499 225.019 13.8806 223.397 13.8974C214.872 13.9853 206.678 10.9353 198.387 8.94844C195.96 8.36675 193.406 7.87584 190.991 8.50559C189.384 8.92439 187.948 9.81315 186.428 10.4789C178.946 13.7546 169.731 11.5445 162.639 15.5955C161.539 16.2239 160.154 16.9968 159.121 16.2635C158.638 15.9213 158.404 15.3384 158.126 14.8167C156.274 11.3442 151.756 10.0209 147.88 10.7015C143.946 11.3922 138.305 14.8816 135.44 19.0485C134.654 20.1908 135.875 21.6359 137.109 21.0045C137.717 20.6931 137.996 20.4966 138.685 20.2241C140.762 19.4039 140.99 23.1974 143.036 23.892C143.926 24.1943 144.854 23.7036 145.341 22.8993C145.992 21.8251 147.04 19.308 149.261 18.2897C148.644 21.0639 149.243 19.3507 148.626 22.1249C148.417 23.0625 148.191 24.0378 147.582 24.7806C146.548 26.0414 144.626 26.2797 143.094 25.7237C141.867 25.2785 140.872 24.4803 139.983 23.5411C139.698 23.2402 139.193 23.3792 139.092 23.7813C138.675 25.4532 138.399 26.4593 137.042 27.0707C136.194 27.4524 135.223 27.4887 134.331 27.2253C131.627 26.4263 131.61 24.1162 130.632 22.3194C130.006 21.1678 128.618 20.1804 127.439 20.7534C126.918 21.0067 126.569 21.5074 126.244 21.9872C124.976 23.8587 123.707 25.7302 122.439 27.6018C123.577 25.9229 129.852 33.002 130.013 34.4594C130.383 37.8243 123.783 33.9063 123.024 36.4421ZM239.078 85.1842C239.601 84.5214 240.425 83.9928 241.253 84.1553C241.357 84.1756 241.462 84.2081 241.542 84.277C241.643 84.3644 241.691 84.4979 241.724 84.6278C242.077 86.042 241.064 87.4287 240.949 88.8818C240.836 90.3111 241.601 91.709 241.45 93.1347C241.278 94.7457 239.878 96.0705 238.293 96.4082C235.66 96.9689 230.665 94.3845 232.415 91.2166C233.089 89.9981 235.083 89.6609 236.135 88.9046C237.565 87.8772 238.03 86.513 239.078 85.1842Z" fill="#F0F3FB"/>
<path d="M226.372 96.1513C227.026 97.2176 227.707 98.3134 228.725 99.0402C229.71 99.743 230.92 100.036 232.097 100.315C233.957 100.756 235.817 101.197 237.677 101.637C237.514 100.239 236.22 99.2314 234.898 98.7484C233.575 98.2654 232.138 98.1373 230.838 97.5958C229.538 97.0543 228.323 95.9062 228.348 94.4985C228.355 94.1321 228.446 93.7689 228.424 93.4032C228.336 91.8803 226.554 91.1761 225.432 90.1424C224.752 89.5165 221.847 83.6273 221.097 87.2223C220.713 89.0677 225.371 94.5204 226.372 96.1513ZM243.439 108.505C242.171 109.054 242.164 110.845 241.385 111.986C240.188 113.74 237.585 113.547 235.632 114.377C232.806 115.578 231.539 118.87 231.015 121.895C230.491 124.921 230.36 128.16 228.667 130.722C233.348 129.814 238.028 128.906 242.708 127.998C243.853 127.776 245.092 127.565 246.141 128.075C248.592 129.265 248.181 133.279 250.442 134.802C252.114 135.929 254.363 135.137 256.187 134.277C258.698 133.092 261.203 131.801 263.26 129.937C265.318 128.072 266.91 125.554 267.139 122.786C267.318 120.616 266.662 118.472 266.013 116.393C264.85 112.661 263.686 108.928 262.522 105.196C261.952 107.218 260.77 112.308 258.204 112.643C255.822 112.953 254.28 109.452 253.17 107.895C252.1 106.395 251.455 105.326 249.58 106.243C248.408 106.816 248.124 108.237 246.808 108.623C245.711 108.945 244.555 108.022 243.439 108.505ZM259.195 102.506C260.893 103.396 263.054 102.115 264.858 102.763C266.637 103.403 267.536 105.732 269.407 106.001C269.622 106.032 269.851 106.03 270.046 105.933C270.627 105.641 270.509 104.73 270.063 104.257C269.617 103.784 268.972 103.539 268.523 103.07C267.849 102.364 267.745 101.309 267.572 100.348C267.399 99.3872 267.017 98.3207 266.11 97.9598C265.778 97.8278 265.412 97.8093 265.067 97.7137C263.58 97.3011 262.886 95.5901 261.446 95.1622C260.529 94.8899 257.406 95.3502 256.654 95.8537C254.658 97.1915 256.398 97.1819 257.205 98.4967C258.001 99.7924 257.653 101.697 259.195 102.506ZM152.004 48.181C152.212 48.2957 152.457 48.3377 152.653 48.4726C152.91 48.6498 153.045 48.9605 153.284 49.1607C153.572 49.4005 153.968 49.4502 154.34 49.4903C156.013 49.6703 154.706 46.5402 153.76 46.1125C152.483 45.5347 150.411 47.3037 152.004 48.181ZM254.566 54.9557C255.355 54.8455 256.314 54.8178 256.707 54.1247C257.025 53.5636 256.78 52.8655 256.554 52.2616C256.061 50.9497 255.675 49.5977 255.4 48.2234C255.333 47.8836 255.272 47.534 255.329 47.1922C255.512 46.106 256.828 45.3536 256.702 44.2593C256.118 43.7308 255.268 43.6372 254.571 43.2709C253.213 42.5576 252.634 40.9599 252.073 39.5322C251.59 38.302 251.026 37.0814 250.168 36.0757C249.31 35.0699 248.121 34.2903 246.805 34.1646C247.666 35.9302 248.94 37.4556 250.001 39.1087C251.062 40.7618 251.933 42.6474 251.828 44.6089C251.783 45.4387 251.597 46.381 252.136 47.0136C252.33 47.2419 252.598 47.3951 252.814 47.6033C253.378 48.1476 253.522 48.9838 253.635 49.7598C253.7 50.2031 253.735 50.7307 253.394 51.0213C253.026 51.3348 252.377 51.2133 252.099 51.6086C251.954 51.8143 251.965 52.0998 251.82 52.305C251.429 52.8577 250.511 52.3069 249.89 52.5758C249.697 52.6592 249.548 52.8179 249.413 52.9787C248.696 53.8321 246.577 57.8305 248.964 57.7793C251.064 57.7343 252.411 55.2564 254.566 54.9557ZM240.717 66.839C240.693 66.9774 240.673 67.1208 240.708 67.2567C240.765 67.4785 240.956 67.6382 241.145 67.767C241.766 68.1883 242.495 68.4476 243.242 68.5122C243.402 67.1236 243.468 65.7243 243.441 64.3268C243.438 64.1989 243.431 64.0607 243.35 63.9617C243.279 63.8746 243.165 63.8369 243.057 63.8069C241.362 63.3398 240.952 65.468 240.717 66.839ZM243.245 76.4318C243.466 76.5869 243.699 76.7475 243.818 76.9897C243.991 77.345 243.868 77.7643 243.851 78.1592C243.795 79.4239 244.84 80.7107 244.301 81.8558C244.121 82.2373 243.79 82.5219 243.531 82.855C243.144 83.3537 242.917 84.0344 243.142 84.6246C243.366 85.2147 244.16 85.5769 244.675 85.2107C244.812 85.1132 244.921 84.9741 245.077 84.9098C245.397 84.777 245.756 85.0198 245.949 85.3078C246.143 85.5957 246.253 85.9425 246.497 86.1885C246.917 86.6107 247.642 86.6021 248.148 86.2873C248.653 85.9725 248.965 85.4197 249.15 84.8541C249.304 84.3854 249.385 83.8823 249.297 83.397C249.198 82.8514 248.896 82.368 248.673 81.8605C248.317 81.0504 248.157 80.1549 248.211 79.2716C248.234 78.887 248.284 78.4571 248.042 78.1572C247.799 77.8552 247.362 77.8146 247.012 77.6468C246.702 77.4981 246.457 77.2449 246.218 76.997C245.094 75.8278 244.369 74.806 244.412 73.1433C244.44 72.0924 244.358 71.2465 243.069 71.3574C242.056 71.4446 241.258 72.2311 241.182 73.2384C241.077 74.6225 242.209 75.7015 243.245 76.4318ZM244.116 90.2872C244.333 90.4856 244.505 90.7451 244.77 90.8725C245.272 91.1133 245.842 90.7919 246.355 90.578C246.868 90.3641 247.628 90.3604 247.802 90.8885C247.949 91.3382 247.509 91.7748 247.064 91.9353C246.619 92.0958 246.112 92.1243 245.735 92.4099C245.185 92.8259 245.115 93.6263 245.215 94.3084C245.315 94.9904 245.537 95.6811 245.391 96.355C245.181 97.3309 244.252 97.9931 243.309 98.321C242.539 98.5887 241.519 98.6175 241.081 97.9302C240.672 97.2903 241.027 96.4559 241.379 95.7834C241.827 94.9286 242.277 94.0306 242.293 93.0658C242.302 92.5348 242.178 92.0097 242.166 91.4788C242.138 90.2495 242.984 89.2535 244.116 90.2872ZM246.604 100.833C246.897 100.753 247.189 100.64 247.492 100.658C247.794 100.677 248.115 100.88 248.14 101.182C248.148 101.28 248.124 101.379 248.088 101.471C247.708 102.421 246.271 102.388 245.617 103.175C245.462 103.363 245.357 103.591 245.188 103.766C244.751 104.218 244.025 104.194 243.407 104.079C242.201 103.853 241.038 103.399 239.998 102.748C238.244 101.649 239.196 100.477 240.885 100.471C242.794 100.465 244.699 101.349 246.604 100.833ZM253.292 92.7769C253.191 92.7761 253.083 92.7778 253.002 92.837C252.921 92.8963 252.886 92.9999 252.863 93.098C252.769 93.503 252.797 93.9263 252.736 94.3376C252.675 94.7489 252.496 95.1805 252.127 95.3722C251.716 95.5857 251.222 95.4383 250.767 95.3515C250.059 95.2164 249.32 95.2428 248.623 95.4285C248.417 95.4831 248.209 95.5553 248.053 95.6999C247.897 95.8444 247.807 96.0779 247.885 96.2756C248.005 96.5794 248.407 96.6276 248.734 96.6291C249.894 96.6342 251.071 96.6625 252.18 97.001C253.566 97.4242 254.808 96.9105 255.163 95.3337C255.444 94.0856 254.536 92.786 253.292 92.7769ZM207.392 80.7196C207.396 80.2157 207.373 79.6855 207.112 79.2545C206.851 78.8235 206.274 78.5436 205.826 78.7745C205.241 79.0758 205.282 79.9125 204.992 80.5029C204.815 80.8654 204.499 81.1456 204.32 81.5072C203.834 82.4856 204.624 83.9868 205.807 83.7806C207.108 83.554 207.383 81.7564 207.392 80.7196ZM176.405 7.51642C176.472 7.21189 176.058 7.05258 175.747 7.02387C174.157 6.87659 172.509 6.73555 170.999 7.25747C170.477 7.43794 169.985 7.69383 169.495 7.94877C169.084 8.1625 168.674 8.37623 168.263 8.58996C167.502 8.986 166.706 9.41363 166.247 10.1387C166.175 10.2522 166.111 10.3806 166.123 10.5144C166.16 10.9113 166.713 10.94 167.108 10.9945C168.004 11.118 169.082 12.4945 170.006 12.1441C170.88 11.8129 170.437 10.6156 170.645 9.94362C171.195 8.16445 175.024 8.67528 176.405 7.51642Z" fill="#F0F3FB"/>
<path d="M171.663 34.3558C168.361 34.3558 165.684 37.0324 165.684 40.3343C165.684 43.1696 169.598 50.112 170.844 51.9984C170.998 52.2314 171.759 52.1175 171.913 51.8846C173.159 49.9982 177.641 43.1696 177.641 40.3343C177.641 37.0324 174.965 34.3558 171.663 34.3558ZM171.663 42.671C170.063 42.671 168.766 41.3739 168.766 39.7738C168.766 38.1738 170.063 36.8767 171.663 36.8767C173.263 36.8767 174.56 38.1738 174.56 39.7738C174.56 41.3739 173.263 42.671 171.663 42.671Z" fill="#2F5D7C"/>
<path d="M171.085 34.333C167.783 34.333 165.107 37.0097 165.107 40.3115C165.107 43.1467 169.515 50.0207 170.761 51.9073C170.914 52.1402 171.256 52.1402 171.41 51.9073C172.656 50.0208 177.064 43.1468 177.064 40.3115C177.064 37.0097 174.387 34.333 171.085 34.333ZM171.085 42.6482C169.485 42.6482 168.188 41.3511 168.188 39.751C168.188 38.151 169.485 36.8539 171.085 36.8539C172.685 36.8539 173.982 38.151 173.982 39.751C173.982 41.351 172.685 42.6482 171.085 42.6482Z" fill="#2F5D7C"/>
<path d="M219.32 23.0495C216.018 23.0495 213.342 25.726 213.342 29.0279C213.342 31.8632 217.255 38.8057 218.501 40.692C218.655 40.925 219.417 40.8112 219.571 40.5782C220.817 38.6919 225.299 31.8632 225.299 29.0279C225.299 25.726 222.622 23.0495 219.32 23.0495ZM219.32 31.3647C217.72 31.3647 216.423 30.0676 216.423 28.4675C216.423 26.8675 217.72 25.5703 219.32 25.5703C220.92 25.5703 222.217 26.8675 222.217 28.4675C222.217 30.0676 220.92 31.3647 219.32 31.3647Z" fill="#2F5D7C"/>
<path d="M218.742 23.0266C215.44 23.0266 212.764 25.7033 212.764 29.0052C212.764 31.8403 217.172 38.7143 218.418 40.6009C218.572 40.8338 218.913 40.8338 219.067 40.6009C220.313 38.7144 224.721 31.8404 224.721 29.0052C224.721 25.7033 222.044 23.0266 218.742 23.0266ZM218.742 31.3418C217.142 31.3418 215.845 30.0447 215.845 28.4447C215.845 26.8446 217.142 25.5475 218.742 25.5475C220.342 25.5475 221.64 26.8446 221.64 28.4447C221.64 30.0447 220.342 31.3418 218.742 31.3418Z" fill="#2F5D7C"/>
<path d="M147.307 95.2759C144.005 95.2759 141.328 97.9525 141.328 101.254C141.328 104.09 145.242 111.032 146.488 112.918C146.642 113.151 147.403 113.038 147.557 112.805C148.803 110.918 153.286 104.09 153.286 101.254C153.286 97.9525 150.609 95.2759 147.307 95.2759ZM147.307 103.591C145.707 103.591 144.41 102.294 144.41 100.694C144.41 99.0939 145.707 97.7968 147.307 97.7968C148.907 97.7968 150.204 99.0939 150.204 100.694C150.204 102.294 148.907 103.591 147.307 103.591Z" fill="#2F5D7C"/>
<path d="M146.729 95.2532C143.427 95.2532 140.751 97.9298 140.751 101.232C140.751 104.067 145.159 110.941 146.405 112.827C146.559 113.06 146.9 113.06 147.054 112.827C148.3 110.941 152.708 104.067 152.708 101.232C152.708 97.9298 150.031 95.2532 146.729 95.2532ZM146.729 103.568C145.129 103.568 143.832 102.271 143.832 100.671C143.832 99.0712 145.129 97.7741 146.729 97.7741C148.329 97.7741 149.626 99.0712 149.626 100.671C149.626 102.271 148.329 103.568 146.729 103.568Z" fill="#2F5D7C"/>
<path d="M250.815 111.062C247.513 111.062 244.837 113.739 244.837 117.041C244.837 119.876 248.75 126.818 249.996 128.705C250.15 128.938 250.912 128.824 251.066 128.591C252.312 126.705 256.794 119.876 256.794 117.041C256.794 113.739 254.117 111.062 250.815 111.062ZM250.815 119.377C249.215 119.377 247.918 118.08 247.918 116.48C247.918 114.88 249.215 113.583 250.815 113.583C252.415 113.583 253.712 114.88 253.712 116.48C253.712 118.08 252.415 119.377 250.815 119.377Z" fill="#2F5D7C"/>
<path d="M250.237 111.039C246.936 111.039 244.259 113.716 244.259 117.018C244.259 119.853 248.667 126.727 249.913 128.614C250.067 128.847 250.408 128.847 250.562 128.614C251.808 126.727 256.216 119.853 256.216 117.018C256.216 113.716 253.539 111.039 250.237 111.039ZM250.237 119.355C248.637 119.355 247.34 118.057 247.34 116.457C247.34 114.857 248.637 113.56 250.237 113.56C251.838 113.56 253.135 114.857 253.135 116.457C253.135 118.057 251.838 119.355 250.237 119.355Z" fill="#2F5D7C"/>
<path d="M47.7097 37.0984C44.4079 37.0984 41.7313 39.7749 41.7313 43.0768C41.7313 45.9121 45.6447 52.8546 46.8907 54.7409C47.0446 54.9739 47.8063 54.8601 47.9602 54.6271C49.2062 52.7408 53.6884 45.9121 53.6884 43.0768C53.6884 39.775 51.0116 37.0984 47.7097 37.0984ZM47.7097 45.4136C46.1099 45.4136 44.8128 44.1164 44.8128 42.5164C44.8128 40.9163 46.1099 39.6192 47.7097 39.6192C49.3098 39.6192 50.6069 40.9163 50.6069 42.5164C50.6069 44.1164 49.3098 45.4136 47.7097 45.4136Z" fill="#2F5D7C"/>
<path d="M47.132 37.0756C43.8301 37.0756 41.1534 39.7523 41.1534 43.0542C41.1534 45.8893 45.5614 52.7633 46.8075 54.6499C46.9613 54.8828 47.3027 54.8828 47.4566 54.6499C48.7026 52.7634 53.1105 45.8894 53.1105 43.0542C53.1105 39.7523 50.4339 37.0756 47.132 37.0756ZM47.132 45.3908C45.5319 45.3908 44.2349 44.0937 44.2349 42.4937C44.2349 40.8936 45.532 39.5965 47.132 39.5965C48.732 39.5965 50.0292 40.8936 50.0292 42.4937C50.0292 44.0937 48.732 45.3908 47.132 45.3908Z" fill="#2F5D7C"/>
<path d="M68.7113 91.5973C65.4095 91.5973 62.7329 94.2738 62.7329 97.5757C62.7329 100.411 66.6463 107.353 67.8923 109.24C68.0462 109.473 68.8079 109.359 68.9618 109.126C70.2078 107.24 74.69 100.411 74.69 97.5757C74.69 94.2738 72.0131 91.5973 68.7113 91.5973ZM68.7113 99.9125C67.1115 99.9125 65.8144 98.6154 65.8144 97.0153C65.8144 95.4152 67.1115 94.1181 68.7113 94.1181C70.3114 94.1181 71.6085 95.4152 71.6085 97.0153C71.6085 98.6154 70.3114 99.9125 68.7113 99.9125Z" fill="#2F5D7C"/>
<path d="M68.1336 91.5745C64.8318 91.5745 62.155 94.2511 62.155 97.553C62.155 100.388 66.563 107.262 67.809 109.149C67.9628 109.382 68.3043 109.382 68.4581 109.149C69.7041 107.262 74.1121 100.388 74.1121 97.553C74.1121 94.2512 71.4354 91.5745 68.1336 91.5745ZM68.1336 99.8897C66.5335 99.8897 65.2364 98.5926 65.2364 96.9926C65.2364 95.3926 66.5335 94.0954 68.1336 94.0954C69.7336 94.0954 71.0307 95.3925 71.0307 96.9926C71.0307 98.5926 69.7336 99.8897 68.1336 99.8897Z" fill="#2F5D7C"/>
<path d="M141.617 0.0228271C138.316 0.0228271 135.639 2.69937 135.639 6.00125C135.639 8.83658 139.552 15.779 140.798 17.6654C140.952 17.8984 141.714 17.7845 141.868 17.5516C143.114 15.6652 147.596 8.83658 147.596 6.00125C147.596 2.69937 144.919 0.0228271 141.617 0.0228271ZM141.617 8.33801C140.018 8.33801 138.72 7.04089 138.72 5.44083C138.72 3.84078 140.018 2.54366 141.617 2.54366C143.217 2.54366 144.515 3.84078 144.515 5.44083C144.515 7.04089 143.217 8.33801 141.617 8.33801Z" fill="#2F5D7C"/>
<path d="M141.04 0C137.738 0 135.061 2.67667 135.061 5.97854C135.061 8.81369 139.469 15.6877 140.715 17.5743C140.869 17.8071 141.21 17.8071 141.364 17.5743C142.61 15.6878 147.018 8.81375 147.018 5.97854C147.018 2.67672 144.341 0 141.04 0ZM141.04 8.31518C139.44 8.31518 138.142 7.01806 138.142 5.41801C138.142 3.81795 139.44 2.52083 141.04 2.52083C142.64 2.52083 143.937 3.81789 143.937 5.41801C143.937 7.01812 142.64 8.31518 141.04 8.31518Z" fill="#2F5D7C"/>
</svg>
